<svg width="28" height="28" viewBox="0 0 28 28" fill="none" xmlns="http://www.w3.org/2000/svg">
<g clip-path="url(#clip0_63_29)">
<path d="M23.0591 14.8235H5.76494C5.31199 14.8235 4.94141 14.4529 4.94141 14C4.94141 13.547 5.31199 13.1765 5.76494 13.1765H23.0591C23.512 13.1765 23.8826 13.547 23.8826 14C23.8826 14.4529 23.512 14.8235 23.0591 14.8235Z" fill="#3C3C3C"/>
<path d="M11.5291 21.4118C11.3149 21.4118 11.1091 21.3294 10.9444 21.1729L4.35612 14.5847C4.03494 14.2635 4.03494 13.7447 4.35612 13.4235L10.9444 6.82706C11.2655 6.50589 11.7844 6.50589 12.1055 6.82706C12.4267 7.14824 12.4267 7.66706 12.1055 7.98824L6.102 13.9918L12.1055 19.9953C12.4267 20.3165 12.4267 20.8353 12.1055 21.1565C11.9408 21.3212 11.7349 21.3953 11.5208 21.3953L11.5291 21.4118Z" fill="#3C3C3C"/>
</g>
<defs>
<clipPath id="clip0_63_29">
<rect width="28" height="28" fill="white"/>
</clipPath>
</defs>
</svg>
